<svg width="332" height="168" viewBox="0 0 332 168" fill="none" xmlns="http://www.w3.org/2000/svg">
<rect x="0.5" y="0.5" width="328" height="167" rx="83.5" fill="white" stroke="#2E2EA3"/>
<path d="M122.424 89.536C122.424 92.864 121.592 95.52 119.928 97.504C118.264 99.488 115.816 100.48 112.584 100.48C109.384 100.48 106.216 99.632 103.08 97.936V64.48H107.016V79.456C108.456 78.112 109.768 77.168 110.952 76.624C112.168 76.048 113.4 75.76 114.648 75.76C117.144 75.76 119.064 76.72 120.408 78.64C121.752 80.56 122.424 83.264 122.424 86.752V89.536ZM113.688 79.456C112.792 79.456 111.832 79.696 110.808 80.176C109.816 80.656 108.552 81.648 107.016 83.152V95.728C108.904 96.528 110.68 96.928 112.344 96.928C114.488 96.928 116.024 96.272 116.952 94.96C117.88 93.616 118.344 91.808 118.344 89.536V86.752C118.344 84.256 117.96 82.416 117.192 81.232C116.424 80.048 115.256 79.456 113.688 79.456ZM129.66 94.24V64.48H133.596V94.048C133.596 94.912 133.724 95.568 133.98 96.016C134.268 96.432 134.828 96.64 135.66 96.64H136.428V100.24H135.324C133.212 100.24 131.74 99.68 130.908 98.56C130.076 97.44 129.66 96 129.66 94.24ZM161.181 86.656V89.536C161.181 92.928 160.301 95.6 158.541 97.552C156.813 99.504 154.333 100.48 151.101 100.48C147.901 100.48 145.421 99.504 143.661 97.552C141.901 95.6 141.021 92.928 141.021 89.536V86.656C141.021 83.328 141.885 80.688 143.613 78.736C145.373 76.752 147.869 75.76 151.101 75.76C154.333 75.76 156.813 76.752 158.541 78.736C160.301 80.688 161.181 83.328 161.181 86.656ZM157.101 86.656C157.101 84.384 156.589 82.608 155.565 81.328C154.541 80.016 153.053 79.36 151.101 79.36C149.181 79.36 147.693 80.016 146.637 81.328C145.613 82.608 145.101 84.384 145.101 86.656V89.536C145.101 91.904 145.613 93.728 146.637 95.008C147.693 96.288 149.181 96.928 151.101 96.928C153.053 96.928 154.541 96.288 155.565 95.008C156.589 93.728 157.101 91.904 157.101 89.536V86.656ZM187.341 102.976C187.341 105.312 186.381 107.184 184.461 108.592C182.573 110 179.965 110.704 176.637 110.704C174.973 110.704 173.229 110.48 171.405 110.032C169.613 109.584 167.917 108.864 166.317 107.872L167.661 104.8C169.261 105.696 170.797 106.32 172.269 106.672C173.773 107.056 175.229 107.248 176.637 107.248C178.813 107.248 180.493 106.896 181.677 106.192C182.861 105.488 183.453 104.544 183.453 103.36C183.453 102.496 183.165 101.824 182.589 101.344C182.013 100.896 181.085 100.672 179.805 100.672H174.285C172.205 100.672 170.701 100.176 169.773 99.184C168.845 98.192 168.381 97.104 168.381 95.92C168.381 95.088 168.573 94.272 168.957 93.472C169.341 92.64 169.885 91.824 170.589 91.024C169.469 90.352 168.573 89.44 167.901 88.288C167.229 87.104 166.893 85.68 166.893 84.016C166.893 82.192 167.277 80.672 168.045 79.456C168.845 78.24 169.901 77.328 171.213 76.72C172.525 76.08 173.997 75.76 175.629 75.76H176.445C177.565 75.76 178.589 75.92 179.517 76.24H188.061V79.744L182.877 79.024C183.549 79.6 184.093 80.32 184.509 81.184C184.925 82.016 185.133 83.04 185.133 84.256C185.133 85.984 184.733 87.44 183.933 88.624C183.165 89.808 182.125 90.72 180.813 91.36C179.501 91.968 178.045 92.272 176.445 92.272H175.629C175.213 92.272 174.813 92.256 174.429 92.224C174.045 92.16 173.661 92.096 173.277 92.032C172.349 93.056 171.885 94.064 171.885 95.056C171.885 96.336 172.781 96.976 174.573 96.976H179.949C182.253 96.976 184.061 97.488 185.373 98.512C186.685 99.536 187.341 101.024 187.341 102.976ZM176.445 88.864C177.693 88.864 178.797 88.464 179.757 87.664C180.717 86.864 181.197 85.648 181.197 84.016C181.197 82.416 180.717 81.216 179.757 80.416C178.797 79.584 177.693 79.168 176.445 79.168H175.629C174.349 79.168 173.229 79.584 172.269 80.416C171.309 81.216 170.829 82.416 170.829 84.016C170.829 85.648 171.309 86.864 172.269 87.664C173.229 88.464 174.349 88.864 175.629 88.864H176.445ZM195.863 100H191.447V95.632H195.863V100ZM205.289 86.704V89.536C205.289 91.968 205.737 93.808 206.633 95.056C207.529 96.272 208.953 96.88 210.905 96.88C212.825 96.88 214.889 96.384 217.097 95.392L218.297 98.704C215.673 99.888 213.129 100.48 210.665 100.48C207.593 100.48 205.257 99.504 203.657 97.552C202.057 95.6 201.257 92.928 201.257 89.536V86.704C201.257 83.312 202.057 80.64 203.657 78.688C205.257 76.736 207.593 75.76 210.665 75.76C211.817 75.76 213.001 75.92 214.217 76.24C215.465 76.528 216.713 76.944 217.961 77.488L216.761 80.848C215.705 80.4 214.681 80.048 213.689 79.792C212.729 79.536 211.801 79.408 210.905 79.408C208.953 79.408 207.529 80.032 206.633 81.28C205.737 82.496 205.289 84.304 205.289 86.704ZM242.79 86.656V89.536C242.79 92.928 241.91 95.6 240.15 97.552C238.422 99.504 235.942 100.48 232.71 100.48C229.51 100.48 227.03 99.504 225.27 97.552C223.51 95.6 222.63 92.928 222.63 89.536V86.656C222.63 83.328 223.494 80.688 225.222 78.736C226.982 76.752 229.478 75.76 232.71 75.76C235.942 75.76 238.422 76.752 240.15 78.736C241.91 80.688 242.79 83.328 242.79 86.656ZM238.71 86.656C238.71 84.384 238.198 82.608 237.174 81.328C236.15 80.016 234.662 79.36 232.71 79.36C230.79 79.36 229.302 80.016 228.246 81.328C227.222 82.608 226.71 84.384 226.71 86.656V89.536C226.71 91.904 227.222 93.728 228.246 95.008C229.302 96.288 230.79 96.928 232.71 96.928C234.662 96.928 236.15 96.288 237.174 95.008C238.198 93.728 238.71 91.904 238.71 89.536V86.656ZM261.127 79.456C260.231 79.456 259.223 79.696 258.103 80.176C256.983 80.624 255.575 81.52 253.879 82.864V100H249.943V76.24H253.687V79.552C255.383 78.144 256.887 77.168 258.199 76.624C259.511 76.048 260.807 75.76 262.087 75.76C263.591 75.76 264.839 76.112 265.831 76.816C266.823 77.488 267.559 78.464 268.039 79.744C269.799 78.24 271.367 77.2 272.743 76.624C274.151 76.048 275.527 75.76 276.871 75.76C278.983 75.76 280.599 76.464 281.719 77.872C282.839 79.248 283.399 81.216 283.399 83.776V100H279.463V84.352C279.463 81.088 278.279 79.456 275.911 79.456C275.015 79.456 273.991 79.696 272.839 80.176C271.719 80.624 270.311 81.52 268.615 82.864C268.647 82.992 268.663 83.136 268.663 83.296C268.663 83.456 268.663 83.616 268.663 83.776V100H264.727V84.352C264.727 81.088 263.527 79.456 261.127 79.456Z" fill="#2E2EA3"/>
<path d="M30.9717 67.2877L90.9643 67.0896L91 97.4834L92.3495 121.084L83.339 103.569L31.0912 103.474L30.9717 67.2877Z" fill="#2E2EA3"/>
</svg>
